#define lock_width 16
#define lock_height 16
#define lock_x_hot 3
#define lock_y_hot 1
static char lock_bits[] = {
	0xFF, 0xFF, 0xF7, 0xFF, 0xE7, 0xFF, 0xC7, 0xFF, 0x87, 0xFF, 0x07, 0xFF,
	0x07, 0xFE, 0x07, 0xFC, 0x07, 0xF8, 0x07, 0xFF, 0x27, 0xFF, 0x77, 0xFE,
	0x7F, 0xFE, 0xFF, 0xFC, 0xFF, 0xFC, 0xFF, 0xFF, };
